<svg xmlns="http://www.w3.org/2000/svg" width="1089" height="389" xmlns:xlink="http://www.w3.org/1999/xlink" joint-selector="svg" id="v-2" class="waiting"><defs joint-selector="defs" class="waiting"><marker id="v-21429980022" orient="auto" overflow="visible" markerUnits="userSpaceOnUse" class="waiting"><path id="v-185" stroke="black" fill="none" transform="rotate(180)" d="m 10,-6 l -10,6 10,6" stroke-width="1.2" class="waiting"/></marker><marker id="v-2-933205445" orient="auto" overflow="visible" markerUnits="userSpaceOnUse" class="waiting"><path id="v-203" stroke="black" fill="black" transform="rotate(180)" d="m 12,-6 l -12,6 12,6 z" stroke-width="1.2" class="waiting"/></marker><marker id="v-2-479506292" orient="auto" overflow="visible" markerUnits="userSpaceOnUse" class="waiting"><path id="v-597" stroke="black" fill="none" transform="rotate(180)" d="m 10,-6 l 0,12" stroke-width="1.2" class="waiting"/></marker></defs><g joint-selector="layers" class="joint-layers waiting" style="cursor: move;" transform="matrix(1,0,0,1,-10,-48)"><g joint-selector="back" class="joint-back-layer waiting" style="cursor: move;"/><g joint-selector="cells" class="joint-cells-layer joint-viewport waiting" style="cursor: move;"><g model-id="ad22c209-92fe-4fb1-ad52-b1746d54bd73" data-type="Container" id="j_241" class="joint-cell joint-type-container joint-element joint-theme-default waiting" transform="translate(696,261)"><g id="v-1435" class="waiting"><rect class="boundary waiting" id="v-1438" fill="rgb(242,242,242)" height="166" rx="100" ry="40" stroke="black" stroke-dasharray="10,5,4,4" stroke-width="2" width="393"/><circle class="element actorSymbol waiting" id="v-1436" cx="40" cy="40" fill="#FFFFFF" r="40" stroke="black" stroke-width="2" transform="translate(-20, -20)"/><path class="waiting"/><text class="content waiting" id="v-1437" font-size="12" xml:space="preserve" y="0.8em" fill="#000000" font-family="Arial, helvetica, sans-serif" text-anchor="middle" transform="matrix(1,0,0,1,20,14.6)"><tspan dy="0" class="v-line waiting">Admin</tspan></text></g></g><g model-id="a11591aa-724c-4383-970e-75857cbd4ec2" data-type="Container" id="j_236" class="joint-cell joint-type-container joint-element joint-theme-default waiting" transform="translate(40,78)"><g id="v-1393" class="waiting"><rect class="boundary waiting" id="v-1396" fill="rgb(242,242,242)" height="204" rx="100" ry="40" stroke="black" stroke-dasharray="10,5,4,4" stroke-width="2" width="387" style=""/><circle class="element actorSymbol waiting" id="v-1394" cx="40" cy="40" fill="#FFFFFF" r="40" stroke="black" stroke-width="2" transform="translate(-20, -20)" style=""/><path class="waiting"/><text class="content waiting" id="v-1395" font-size="12" xml:space="preserve" y="0.8em" fill="#000000" font-family="Arial, helvetica, sans-serif" text-anchor="middle" transform="matrix(1,0,0,1,20,14.6)"><tspan dy="0" class="v-line waiting">Employee</tspan></text></g></g><g model-id="5e17f874-5b21-49a0-8c9d-4eb87cb9449c" data-type="DependencyLink" id="j_248" class="joint-cell joint-type-dependencylink joint-link joint-theme-default waiting"><path joint-selector="connection-wrap" class="c-connection-wrap waiting" id="v-1489" fill="none" stroke="rgba(190, 190, 190, 0)" stroke-linecap="round" stroke-width="30" d="M 607 255.7 C 610.952380952381 243.68922619047623 614.9047619047619 231.6784523809524 607 216 C 599.0952380952381 200.3215476190476 579.3333333333334 180.97541666666666 553 175 C 526.6666666666666 169.02458333333334 493.7619047619048 176.41988095238094 470 179 C 446.2380952380952 181.58011904761906 431.6190476190476 179.34505952380954 417 177.11"/><path joint-selector="line" id="v-1488" fill="none" stroke="black" stroke-width="1" d="M 607 255.7 C 610.952380952381 243.68922619047623 614.9047619047619 231.6784523809524 607 216 C 599.0952380952381 200.3215476190476 579.3333333333334 180.97541666666666 553 175 C 526.6666666666666 169.02458333333334 493.7619047619048 176.41988095238094 470 179 C 446.2380952380952 181.58011904761906 431.6190476190476 179.34505952380954 417 177.11" class="waiting"/><path joint-selector="label" id="v-1490" d="m 0,-10 l 0,20 4,0 c 10,0, 10 -20, 0,-20 l -4,0" fill="white" stroke="black" stroke-width="2" transform="matrix(-0.9968130164264821,-0.07977349360995786,0.07977349360995786,-0.9968130164264821,540.2,173.1)" class="waiting"/></g><g model-id="c4ce45ad-b5fc-4bfd-bf0e-8b039a8ff8d2" data-type="DependencyLink" id="j_247" class="joint-cell joint-type-dependencylink joint-link joint-theme-default waiting"><path joint-selector="connection-wrap" class="c-connection-wrap waiting" id="v-1486" fill="none" stroke="transparent" stroke-linecap="round" stroke-width="20" d="M 754.3 382 L 623.54 281.2"/><path joint-selector="line" id="v-1485" fill="none" stroke="black" stroke-width="1" d="M 754.3 382 L 623.54 281.2" class="waiting"/><path joint-selector="label" id="v-1487" d="m 0,-10 l 0,20 4,0 c 10,0, 10 -20, 0,-20 l -4,0" fill="white" stroke="black" stroke-width="2" transform="matrix(-0.7919931003831746,-0.6105300393473253,0.6105300393473253,-0.7919931003831746,688.9,331.6)" class="waiting"/></g><g model-id="f185d5e2-851b-4754-8281-9f1c31349ded" data-type="Quality" id="j_237" class="joint-cell joint-type-quality joint-element joint-theme-default waiting" fill="#ffffff" stroke="none" transform="translate(243,80)"><g class="scalable waiting" transform="scale(0.7852376964064524,1.0380876717711)"><path class="element waiting" id="v-1403" d="m 60.637955,-4.0358 c 17.5174,2.2042 29.9953,-10.69554 41.892705,-4.7858 22.34142,10.8714 11.2203,43.7743 -2.25,47.7322 -8.276505,2.9084 -13.960205,5.1934 -46.142805,-2.1786 -6.7454,-2.2317 -28.2652,6.0799 -35.4643,4.7143 C 9.072156,39.4809 6.491756,33.7693 3.744956,28.482 c -6.3069,-15.1266 -2.5738,-28.0439 7.981099,-34.7856 10.5549,-6.74179 27.9316,-7.30796 48.9119,2.2678 z" fill="#FF9C9C" stroke="black" stroke-width="2" vector-effect="non-scaling-stroke" transform="matrix(1,0,0,1,-0.7,11.3)"/></g><text class="content waiting" id="v-1404" font-size="12" xml:space="preserve" y="0.8em" font-weight="bold" text-anchor="middle" fill="#000000" font-family="Arial, helvetica, sans-serif" transform="matrix(1,0,0,1,45,11.9)"><tspan dy="0" class="v-line waiting">Increase</tspan><tspan dy="1em" x="0" class="v-line waiting">employee</tspan><tspan dy="1em" x="0" class="v-line waiting">satisfaction</tspan></text></g><g model-id="b92764c4-cf45-4791-86f6-fedffa815ab0" data-type="Goal" id="j_238" class="joint-cell joint-type-goal joint-element joint-theme-default waiting" fill="#ffffff" stroke="none" transform="translate(327,158)"><g class="scalable waiting" transform="scale(0.6923076923076923,1.1666666666666667)"><rect class="element waiting" id="v-1411" fill="rgb(205,254,205)" height="30" rx="20" stroke="black" stroke-width="2" vector-effect="non-scaling-stroke" width="130"/></g><text class="content waiting" id="v-1412" font-size="12" xml:space="preserve" y="0.8em" font-weight="bold" fill="#000000" text-anchor="middle" font-family="Arial, helvetica, sans-serif" transform="matrix(1,0,0,1,45,6.1)"><tspan dy="0" class="v-line waiting">Money</tspan><tspan dy="1em" x="0" class="v-line waiting">reimbursed</tspan></text></g><g model-id="61cd91c4-62aa-454c-9d0c-d01b1a15a712" data-type="Task" id="j_239" class="joint-cell joint-type-task joint-element joint-theme-default waiting" fill="#ffffff" stroke="none" transform="translate(319,236)"><g class="scalable waiting" transform="scale(0.7307692307692307,1)"><polygon class="element waiting" id="v-1419" fill="#AAAAAA" height="36" points="0,18 15,0 115,0 130,18 115,36 15,36" stroke="black" stroke-width="2" vector-effect="non-scaling-stroke" width="130"/></g><text class="content waiting" id="v-1420" font-size="12" xml:space="preserve" y="0.8em" font-weight="bold" text-anchor="middle" fill="#000000" font-family="Arial, helvetica, sans-serif" transform="matrix(1,0,0,1,47.5,6.6)"><tspan dy="0" class="v-line waiting">Submit</tspan><tspan dy="1em" x="0" class="v-line waiting">Declaration</tspan></text></g><g model-id="b9fc75b0-26c6-43cb-b7db-4d63f5a2c958" data-type="Task" id="j_240" class="joint-cell joint-type-task joint-element joint-theme-default waiting" fill="#ffffff" stroke="none" transform="translate(95,143)"><g class="scalable waiting" transform="scale(0.7307692307692307,1)"><polygon class="element waiting" id="v-1427" fill="rgb(205,254,205)" height="36" points="0,18 15,0 115,0 130,18 115,36 15,36" stroke="black" stroke-width="2" vector-effect="non-scaling-stroke" width="130"/></g><text class="content waiting" id="v-1428" font-size="12" xml:space="preserve" y="0.8em" font-weight="bold" text-anchor="middle" fill="#000000" font-family="Arial, helvetica, sans-serif" transform="matrix(1,0,0,1,47.5,12.6)"><tspan dy="0" class="v-line waiting">Break</tspan></text></g><g model-id="9ab518f1-2ee3-4ab2-ad8f-1044eeb89c11" data-type="Quality" id="j_242" class="joint-cell joint-type-quality joint-element joint-theme-default waiting" fill="#ffffff" stroke="none" transform="translate(870,261)"><g class="scalable waiting" transform="scale(0.7852376964064524,1.0380876717711)"><path class="element waiting" id="v-1445" d="m 60.637955,-4.0358 c 17.5174,2.2042 29.9953,-10.69554 41.892705,-4.7858 22.34142,10.8714 11.2203,43.7743 -2.25,47.7322 -8.276505,2.9084 -13.960205,5.1934 -46.142805,-2.1786 -6.7454,-2.2317 -28.2652,6.0799 -35.4643,4.7143 C 9.072156,39.4809 6.491756,33.7693 3.744956,28.482 c -6.3069,-15.1266 -2.5738,-28.0439 7.981099,-34.7856 10.5549,-6.74179 27.9316,-7.30796 48.9119,2.2678 z" fill="#FF9C9C" stroke="black" stroke-width="2" vector-effect="non-scaling-stroke" transform="matrix(1,0,0,1,-0.7,11.3)"/></g><text class="content waiting" id="v-1446" font-size="12" xml:space="preserve" y="0.8em" font-weight="bold" text-anchor="middle" fill="#000000" font-family="Arial, helvetica, sans-serif" transform="matrix(1,0,0,1,45,11.9)"><tspan dy="0" class="v-line waiting">adequate</tspan><tspan dy="1em" x="0" class="v-line waiting">declaration</tspan><tspan dy="1em" x="0" class="v-line waiting">handling</tspan></text></g><g model-id="26643cc3-bc86-432a-864a-01ab8bd4faa0" data-type="Goal" id="j_243" class="joint-cell joint-type-goal joint-element joint-theme-default waiting" fill="#ffffff" stroke="none" transform="translate(732,382)"><g class="scalable waiting" transform="scale(0.6923076923076923,1.1666666666666667)"><rect class="element waiting" id="v-1453" fill="rgb(205,254,205)" height="30" rx="20" stroke="black" stroke-width="2" vector-effect="non-scaling-stroke" width="130"/></g><text class="content waiting" id="v-1454" font-size="12" xml:space="preserve" y="0.8em" font-weight="bold" fill="#000000" text-anchor="middle" font-family="Arial, helvetica, sans-serif" transform="matrix(1,0,0,1,45,6.1)"><tspan dy="0" class="v-line waiting">Money</tspan><tspan dy="1em" x="0" class="v-line waiting">Reimbursed</tspan></text></g><g model-id="f53b6e3a-7fa7-4d58-a24f-af6bd453e8c6" data-type="Goal" id="j_244" class="joint-cell joint-type-goal joint-element joint-theme-default waiting" fill="#ffffff" stroke="none" transform="translate(864,356)"><g class="scalable waiting" transform="scale(0.6923076923076923,1.1666666666666667)"><rect class="element waiting" id="v-1461" fill="rgb(205,254,205)" height="30" rx="20" stroke="black" stroke-width="2" vector-effect="non-scaling-stroke" width="130"/></g><text class="content waiting" id="v-1462" font-size="12" xml:space="preserve" y="0.8em" font-weight="bold" fill="#000000" text-anchor="middle" font-family="Arial, helvetica, sans-serif" transform="matrix(1,0,0,1,45,6.1)"><tspan dy="0" class="v-line waiting">Transaction</tspan><tspan dy="1em" x="0" class="v-line waiting">Finished</tspan></text></g><g model-id="fb3fe5e0-b9ba-43de-8629-df23bd06c8f8" data-type="Task" id="j_245" class="joint-cell joint-type-task joint-element joint-theme-default waiting" fill="#ffffff" stroke="none" transform="translate(984,359)"><g class="scalable waiting" transform="scale(0.7307692307692307,1)"><polygon class="element waiting" id="v-1469" fill="rgb(205,254,205)" height="36" points="0,18 15,0 115,0 130,18 115,36 15,36" stroke="black" stroke-width="2" vector-effect="non-scaling-stroke" width="130"/></g><text class="content waiting" id="v-1470" font-size="12" xml:space="preserve" y="0.8em" font-weight="bold" text-anchor="middle" fill="#000000" font-family="Arial, helvetica, sans-serif" transform="matrix(1,0,0,1,47.5,12.6)"><tspan dy="0" class="v-line waiting">Break</tspan></text></g><g model-id="72706f38-65a7-45b8-98cd-61298f726225" data-type="Goal" id="j_246" class="joint-cell joint-type-goal joint-element joint-theme-default waiting" fill="#ffffff" stroke="none" transform="translate(562,251)"><g class="scalable waiting" transform="scale(0.6923076923076923,1.1666666666666667)"><rect class="element waiting" id="v-1477" fill="rgb(205,254,205)" height="30" rx="20" stroke="black" stroke-width="2" vector-effect="non-scaling-stroke" width="130"/></g><text class="content waiting" id="v-1478" font-size="12" xml:space="preserve" y="0.8em" font-weight="bold" fill="#000000" text-anchor="middle" font-family="Arial, helvetica, sans-serif" transform="matrix(1,0,0,1,45,6.1)"><tspan dy="0" class="v-line waiting">Money</tspan><tspan dy="1em" x="0" class="v-line waiting">Reimbursed</tspan></text></g><g model-id="b13ff7af-f497-42ca-a6e7-8d1f0e17e58a" data-type="ContributionLink" id="j_249" class="joint-cell joint-type-contributionlink joint-link joint-theme-default waiting"><path joint-selector="connection-wrap" class="c-connection-wrap waiting" id="v-1496" fill="none" stroke="transparent" stroke-linecap="round" stroke-width="20" d="M 350.38 158 L 321.95 134.99"/><path joint-selector="line" id="v-1495" fill="none" stroke="black" stroke-width="1" d="M 350.38 158 L 321.95 134.99" marker-end="url(#v-21429980022)" class="waiting"/><g id="v-1491" class="labels waiting"><g id="v-1492" class="label waiting" label-idx="0" cursor="default" transform="matrix(1,0,0,1,339.00799560546875,148.79600524902344)"><rect joint-selector="rect" id="v-1494" fill="rgb(242,242,242)" rx="3" ry="3" width="30.6953125" height="14" transform="matrix(1,0,0,1,-15.3,-7)" class="waiting"/><text joint-selector="text" id="v-1493" fill="#000000" font-size="12" text-anchor="middle" pointer-events="none" font-family="sans-serif" font-weight="bold" xml:space="preserve" y="0.8em" transform="matrix(1,0,0,1,0,-5.6)" class="waiting"><tspan dy="0" class="v-line waiting">make</tspan></text></g></g></g><g model-id="dd7954a2-1fba-4078-b74a-ea5640478802" data-type="AndRefinementLink" id="j_250" class="joint-cell joint-type-andrefinementlink joint-link joint-theme-default waiting"><path joint-selector="connection-wrap" class="c-connection-wrap waiting" id="v-1498" fill="none" stroke="transparent" stroke-linecap="round" stroke-width="20" d="M 367.76 236 L 370.77 193"/><path joint-selector="line" id="v-1497" fill="none" stroke="black" stroke-width="1" d="M 367.76 236 L 370.77 193" marker-end="url(#v-2-479506292)" class="waiting"/></g><g model-id="8c09b171-9d73-4a1b-acf6-0b60bb8803fe" data-type="AndRefinementLink" id="j_251" class="joint-cell joint-type-andrefinementlink joint-link joint-theme-default waiting"><path joint-selector="connection-wrap" class="c-connection-wrap waiting" id="v-1500" fill="none" stroke="transparent" stroke-linecap="round" stroke-width="20" d="M 822 390.64 L 864 382.36"/><path joint-selector="line" id="v-1499" fill="none" stroke="black" stroke-width="1" d="M 822 390.64 L 864 382.36" marker-end="url(#v-2-479506292)" class="waiting"/></g><g model-id="578ae6d4-6cae-4359-a761-779cd7cc4f2b" data-type="ContributionLink" id="j_252" class="joint-cell joint-type-contributionlink joint-link joint-theme-default waiting"><path joint-selector="connection-wrap" class="c-connection-wrap waiting" id="v-1506" fill="none" stroke="transparent" stroke-linecap="round" stroke-width="20" d="M 910.23 356 L 913.04 315.99"/><path joint-selector="line" id="v-1505" fill="none" stroke="black" stroke-width="1" d="M 910.23 356 L 913.04 315.99" marker-end="url(#v-21429980022)" class="waiting"/><g id="v-1501" class="labels waiting"><g id="v-1502" class="label waiting" label-idx="0" cursor="default" transform="matrix(1,0,0,1,911.35400390625,339.9960021972656)"><rect joint-selector="rect" id="v-1504" fill="rgb(242,242,242)" rx="3" ry="3" width="30.6953125" height="14" transform="matrix(1,0,0,1,-15.3,-7)" class="waiting"/><text joint-selector="text" id="v-1503" fill="#000000" font-size="12" text-anchor="middle" pointer-events="none" font-family="sans-serif" font-weight="bold" xml:space="preserve" y="0.8em" transform="matrix(1,0,0,1,0,-5.6)" class="waiting"><tspan dy="0" class="v-line waiting">make</tspan></text></g></g></g><g model-id="fffb2462-34d5-44cb-b768-4cbf46cdbe1b" data-type="ContributionLink" id="j_253" class="joint-cell joint-type-contributionlink joint-link joint-theme-default waiting"><path joint-selector="connection-wrap" class="c-connection-wrap waiting" id="v-1512" fill="none" stroke="transparent" stroke-linecap="round" stroke-width="20" d="M 1007.8 359 L 951.18 315.99"/><path joint-selector="line" id="v-1511" fill="none" stroke="black" stroke-width="1" d="M 1007.8 359 L 951.18 315.99" marker-end="url(#v-21429980022)" class="waiting"/><g id="v-1507" class="labels waiting"><g id="v-1508" class="label waiting" label-idx="0" cursor="default" transform="matrix(1,0,0,1,985.1519775390625,341.7959899902344)"><rect joint-selector="rect" id="v-1510" fill="rgb(242,242,242)" rx="3" ry="3" width="32.0234375" height="14" transform="matrix(1,0,0,1,-16,-7)" class="waiting"/><text joint-selector="text" id="v-1509" fill="#000000" font-size="12" text-anchor="middle" pointer-events="none" font-family="sans-serif" font-weight="bold" xml:space="preserve" y="0.8em" transform="matrix(1,0,0,1,0,-5.6)" class="waiting"><tspan dy="0" class="v-line waiting">break</tspan></text></g></g></g><g model-id="adb502b1-0486-4307-9a49-aa71e1d539ef" data-type="ContributionLink" id="j_254" class="joint-cell joint-type-contributionlink joint-link joint-theme-default waiting"><path joint-selector="connection-wrap" class="c-connection-wrap waiting" id="v-1518" fill="none" stroke="transparent" stroke-linecap="round" stroke-width="20" d="M 190 143.53 L 242.97 124.04"/><path joint-selector="line" id="v-1517" fill="none" stroke="black" stroke-width="1" d="M 190 143.53 L 242.97 124.04" marker-end="url(#v-21429980022)" class="waiting"/><g id="v-1513" class="labels waiting"><g id="v-1514" class="label waiting" label-idx="0" cursor="default" transform="matrix(1,0,0,1,211.18800354003906,135.73399353027344)"><rect joint-selector="rect" id="v-1516" fill="rgb(242,242,242)" rx="3" ry="3" width="32.0234375" height="14" transform="matrix(1,0,0,1,-16,-7)" class="waiting"/><text joint-selector="text" id="v-1515" fill="#000000" font-size="12" text-anchor="middle" pointer-events="none" font-family="sans-serif" font-weight="bold" xml:space="preserve" y="0.8em" transform="matrix(1,0,0,1,0,-5.6)" class="waiting"><tspan dy="0" class="v-line waiting">break</tspan></text></g></g></g></g><g joint-selector="front" class="joint-front-layer waiting" style="cursor: move;"/><g joint-selector="tools" class="joint-tools-layer waiting" style="cursor: move;"><g class="joint-tools joint-theme-default waiting"><g class="joint-tool joint-theme-default waiting" data-tool-name="vertices" model-id="c4ce45ad-b5fc-4bfd-bf0e-8b039a8ff8d2" style="display: none;"><path fill="none" stroke="transparent" stroke-width="10" cursor="cell" joint-selector="connection" d="M 754.3 382 L 623.54 281.2" class="joint-vertices-path waiting"/></g></g><g class="joint-tools joint-theme-default waiting"><g class="joint-tool joint-theme-default waiting" data-tool-name="vertices" model-id="5e17f874-5b21-49a0-8c9d-4eb87cb9449c" style="display: none;"><path fill="none" stroke="transparent" stroke-width="10" cursor="cell" joint-selector="connection" d="M 607 255.7 C 610.952380952381 243.68922619047623 614.9047619047619 231.6784523809524 607 216 C 599.0952380952381 200.3215476190476 579.3333333333334 180.97541666666666 553 175 C 526.6666666666666 169.02458333333334 493.7619047619048 176.41988095238094 470 179 C 446.2380952380952 181.58011904761906 431.6190476190476 179.34505952380954 417 177.11" class="joint-vertices-path waiting"/><circle r="6" fill="#33334F" stroke="#FFFFFF" stroke-width="2" cursor="move" class="joint-marker-vertex joint-theme-default waiting" cx="607" cy="216" model-id="5e17f874-5b21-49a0-8c9d-4eb87cb9449c"/><circle r="6" fill="#33334F" stroke="#FFFFFF" stroke-width="2" cursor="move" class="joint-marker-vertex joint-theme-default waiting" cx="553" cy="175" model-id="5e17f874-5b21-49a0-8c9d-4eb87cb9449c"/><circle r="6" fill="#33334F" stroke="#FFFFFF" stroke-width="2" cursor="move" class="joint-marker-vertex joint-theme-default waiting" cx="470" cy="179" model-id="5e17f874-5b21-49a0-8c9d-4eb87cb9449c"/></g></g><g class="joint-tools joint-theme-default waiting"><g class="joint-tool joint-theme-default waiting" data-tool-name="vertices" model-id="b13ff7af-f497-42ca-a6e7-8d1f0e17e58a" style="display: none;"><path fill="none" stroke="transparent" stroke-width="10" cursor="cell" joint-selector="connection" d="M 350.38 158 L 321.95 134.99" class="joint-vertices-path waiting"/></g></g><g class="joint-tools joint-theme-default waiting"><g class="joint-tool joint-theme-default waiting" data-tool-name="vertices" model-id="dd7954a2-1fba-4078-b74a-ea5640478802" style="display: none;"><path fill="none" stroke="transparent" stroke-width="10" cursor="cell" joint-selector="connection" d="M 367.76 236 L 370.77 193" class="joint-vertices-path waiting"/></g></g><g class="joint-tools joint-theme-default waiting"><g class="joint-tool joint-theme-default waiting" data-tool-name="vertices" model-id="8c09b171-9d73-4a1b-acf6-0b60bb8803fe" style="display: none;"><path fill="none" stroke="transparent" stroke-width="10" cursor="cell" joint-selector="connection" d="M 822 390.64 L 864 382.36" class="joint-vertices-path waiting"/></g></g><g class="joint-tools joint-theme-default waiting"><g class="joint-tool joint-theme-default waiting" data-tool-name="vertices" model-id="578ae6d4-6cae-4359-a761-779cd7cc4f2b" style="display: none;"><path fill="none" stroke="transparent" stroke-width="10" cursor="cell" joint-selector="connection" d="M 910.23 356 L 913.04 315.99" class="joint-vertices-path waiting"/></g></g><g class="joint-tools joint-theme-default waiting"><g class="joint-tool joint-theme-default waiting" data-tool-name="vertices" model-id="fffb2462-34d5-44cb-b768-4cbf46cdbe1b" style="display: none;"><path fill="none" stroke="transparent" stroke-width="10" cursor="cell" joint-selector="connection" d="M 1007.8 359 L 951.18 315.99" class="joint-vertices-path waiting"/></g></g><g class="joint-tools joint-theme-default waiting"><g class="joint-tool joint-theme-default waiting" data-tool-name="vertices" model-id="adb502b1-0486-4307-9a49-aa71e1d539ef" style="display: none;"><path fill="none" stroke="transparent" stroke-width="10" cursor="cell" joint-selector="connection" d="M 190 143.53 L 242.97 124.04" class="joint-vertices-path waiting"/></g></g></g></g></svg>